<?xml version="1.0" encoding="UTF-8" standalone="no"?>
<svg
   id="svg30"
   version="1.1"
   width="24"
   height="24"
   sodipodi:docname="preview.svg"
   inkscape:version="1.2.2 (b0a8486541, 2022-12-01)"
   xmlns:inkscape="http://www.inkscape.org/namespaces/inkscape"
   xmlns:sodipodi="http://sodipodi.sourceforge.net/DTD/sodipodi-0.dtd"
   xmlns="http://www.w3.org/2000/svg"
   xmlns:svg="http://www.w3.org/2000/svg"
   xmlns:rdf="http://www.w3.org/1999/02/22-rdf-syntax-ns#"
   xmlns:cc="http://creativecommons.org/ns#"
   xmlns:dc="http://purl.org/dc/elements/1.1/">
  <sodipodi:namedview
     pagecolor="#ffffff"
     bordercolor="#666666"
     borderopacity="1"
     objecttolerance="10"
     gridtolerance="10"
     guidetolerance="10"
     inkscape:pageopacity="0"
     inkscape:pageshadow="2"
     inkscape:window-width="1584"
     inkscape:window-height="1036"
     id="namedview18"
     showgrid="false"
     inkscape:zoom="19.666667"
     inkscape:cx="3.5338982"
     inkscape:cy="16.067796"
     inkscape:window-x="2221"
     inkscape:window-y="12"
     inkscape:window-maximized="0"
     inkscape:current-layer="svg30"
     inkscape:showpageshadow="2"
     inkscape:pagecheckerboard="0"
     inkscape:deskcolor="#d1d1d1" />
  <metadata
     id="metadata36">
    <rdf:RDF>
      <cc:Work
         rdf:about="">
        <dc:format>image/svg+xml</dc:format>
        <dc:type
           rdf:resource="http://purl.org/dc/dcmitype/StillImage" />
      </cc:Work>
    </rdf:RDF>
  </metadata>
  <defs
     id="defs34">
    <linearGradient
       id="a"
       gradientUnits="userSpaceOnUse"
       x1="12"
       x2="12"
       y1="18"
       y2="24"
       gradientTransform="matrix(1.0731035,0,0,0.74513829,1.6543662,-1.1924886)">
      <stop
         offset="0"
         stop-color="#4dadee"
         id="stop147" />
      <stop
         offset="1"
         stop-color="#c7e5f9"
         id="stop149" />
    </linearGradient>
    <linearGradient
       id="b"
       gradientUnits="userSpaceOnUse"
       x1="9"
       x2="9"
       y1="21"
       y2="24"
       gradientTransform="matrix(1.0731035,0,0,0.74513829,1.6543662,-1.1924886)">
      <stop
         offset="0"
         stop-color="#d8cd7e"
         id="stop152" />
      <stop
         offset="1"
         stop-color="#ab983d"
         id="stop154" />
    </linearGradient>
  </defs>
  <g
     id="g510"
     transform="matrix(0.93187655,0,0,1.3420328,-1.5416651,-6.3996418)"
     style="opacity:0.5">
    <path
       d="m 2.5,5.5 h 19 v 13 h -19 z"
       fill="url(#a)"
       stroke="#9a9a9a"
       id="path157"
       style="fill:url(#a)" />
    <path
       d="m 3,12 5,-3 13,5 v 4 H 3 Z"
       fill="url(#b)"
       fill-rule="evenodd"
       id="path159"
       style="fill:url(#b)" />
  </g>
  <g
     id="g485"
     transform="matrix(1.4659889,0,0,1.4158846,-6.6044616,-9.8185379)">
    <g
       id="g16"
       style="fill-rule:evenodd"
       transform="matrix(1.0000016,0,0,0.99999994,-1.1118864e-5,2.258824e-5)">
      <g
         id="g476">
        <path
           id="path8-6"
           style="opacity:0.8;fill:#e6e6e6;stroke:#505050;stroke-width:1.04;stroke-linecap:round;stroke-linejoin:round;stroke-dashoffset:7"
           d="m 7.1700004,14.900022 a 4.7100076,4.7099997 0 0 0 4.7100076,4.71 4.7100076,4.7099997 0 0 0 4.710008,-4.71 4.7100076,4.7099997 0 0 0 -4.710008,-4.71 4.7100076,4.7099997 0 0 0 -4.7100076,4.71 z"
           inkscape:connector-curvature="0"
           transform="matrix(0.9999984,0,0,1.0000001,1.1118846e-5,-2.2588241e-5)" />
        <path
           id="path10"
           d="m 16,17.8 c 0,1.18 -1.18,1.18 -1.18,1.18 l 4.12,4.12 1.18,-1.18 z"
           inkscape:connector-curvature="0"
           style="fill:#ffcc30;stroke:#505050;stroke-width:1.04;stroke-linejoin:round" />
      </g>
      <path
         id="path12"
         d="m 16.9,18.7 -1.18,-1.18 -1.18,1.18 1.18,1.18 z"
         inkscape:connector-curvature="0"
         style="stroke:#505050;stroke-width:1.04;stroke-linejoin:round" />
      <path
         id="path14"
         d="m 14.5,12.2 c -1.18,-1.77 -2.62,-2 -3.53,-1.18 -0.917,0.823 1.18,0.589 2.36,1.77 1.18,1.18 0,3.53 1.18,3.53 1.18,0 1.18,-2.36 0,-4.12 z"
         inkscape:connector-curvature="0"
         style="opacity:0.7;fill:#fcffff" />
    </g>
    <path
       id="path18-7"
       d="m 19.20002,21.700022 -2.360004,-2.36"
       style="opacity:0.5;stroke:#fcffff;stroke-width:1.04;stroke-linecap:round;stroke-linejoin:round"
       inkscape:connector-curvature="0" />
  </g>
</svg>
